<svg xmlns="http://www.w3.org/2000/svg" width="41.907" height="33.216" viewBox="0 0 41.907 33.216">
  <g id="Group_40446" data-name="Group 40446" transform="translate(-1415.5 -852.285)">
    <path id="Path_78123" data-name="Path 78123" d="M1408.123,767.784a2.615,2.615,0,0,1-2.173,2.6v-5.128A2.6,2.6,0,0,1,1408.123,767.784Z" transform="translate(41.315 97.492)" fill="#28236e" stroke="rgba(0,0,0,0)" stroke-width="1"/>
    <path id="Path_78124" data-name="Path 78124" d="M1613.835,843.054h-3.219a.493.493,0,1,0,0,.986h3.219a.493.493,0,1,0,0-.986Z" transform="translate(-157.421 21.766)" fill="#28236e" stroke="rgba(0,0,0,0)" stroke-width="1"/>
    <path id="Path_78125" data-name="Path 78125" d="M1552.634,615.214a.49.49,0,0,0,.349-.144l2.276-2.276a.493.493,0,0,0,0-.7h0a.494.494,0,0,0-.7,0l-2.276,2.276a.493.493,0,0,0,.348.841Z" transform="translate(-100.983 246.713)" fill="#28236e" stroke="rgba(0,0,0,0)" stroke-width="1"/>
    <path id="Path_78126" data-name="Path 78126" d="M1548.987,987.2a.493.493,0,0,0-.7.7l2.276,2.276a.493.493,0,1,0,.7-.7Z" transform="translate(-97.094 -118.397)" fill="#28236e" stroke="rgba(0,0,0,0)" stroke-width="1"/>
    <path id="Path_78127" data-name="Path 78127" d="M1294.032,414.456v9.388l-2.387-.873v-22.88l2.387-.873v15.239Z" transform="translate(152.576 453.783)" fill="#28236e" stroke="rgba(0,0,0,0)" stroke-width="1"/>
    <path id="Path_78128" data-name="Path 78128" d="M847.473,441.041v22.4L836,459.24v-14Z" transform="translate(596.09 413.073)" fill="#28236e" stroke="rgba(0,0,0,0)" stroke-width="1"/>
    <path id="Path_78129" data-name="Path 78129" d="M356.248,602.4v13.8H350.7a6.9,6.9,0,1,1,0-13.8Z" transform="translate(1075.181 256.008)" fill="#28236e" stroke="rgba(0,0,0,0)" stroke-width="1"/>
    <path id="Path_78130" data-name="Path 78130" d="M506.572,1127.257v9.5a2.619,2.619,0,0,1-2.589,2.63h-.009a2.6,2.6,0,0,1-2.6-2.6v-10.026a7.561,7.561,0,0,0,2.705.5Zm-1.284,8.653a1.314,1.314,0,1,0-1.314,1.314A1.316,1.316,0,0,0,505.288,1135.91Z" transform="translate(921.798 -254.385)" fill="#28236e" stroke="rgba(0,0,0,0)" stroke-width="1"/>
    <path id="Path_78131" data-name="Path 78131" d="M574.916,1445.63a.657.657,0,1,1-.657.657A.658.658,0,0,1,574.916,1445.63Z" transform="translate(850.856 -564.762)" fill="#28236e" stroke="rgba(0,0,0,0)" stroke-width="1"/>
    <path id="Path_78132" data-name="Path 78132" d="M233.75,795.832h.772a7.672,7.672,0,0,0,0,3.5h-.772a1.75,1.75,0,0,1,0-3.5Z" transform="translate(1184 67.731)" fill="#28236e" stroke="rgba(0,0,0,0)" stroke-width="1"/>
  </g>
</svg>
